<?xml version="1.0" encoding="UTF-8"?>
<svg width="141px" height="124px" viewBox="0 0 141 124" version="1.1" xmlns="http://www.w3.org/2000/svg" xmlns:xlink="http://www.w3.org/1999/xlink">
    <title>table-solid</title>
    <defs>
        <filter color-interpolation-filters="auto" id="filter-1">
            <feColorMatrix in="SourceGraphic" type="matrix" values="0 0 0 0 1.000000 0 0 0 0 0.756863 0 0 0 0 0.027451 0 0 0 1.000000 0"></feColorMatrix>
        </filter>
    </defs>
    <g id="Page-1" stroke="none" stroke-width="1" fill="none" fill-rule="evenodd">
        <g id="Desktop-HD" transform="translate(-786.000000, -584.000000)">
            <g id="table-solid" transform="translate(623.000000, 533.000000)" filter="url(#filter-1)">
                <g transform="translate(163.000000, 51.000000)">
                    <path d="M127.78125,0 L13.21875,0 C5.91814453,0 0,5.948125 0,13.2857143 L0,110.714286 C0,118.051875 5.91814453,124 13.21875,124 L127.78125,124 C135.081855,124 141,118.051875 141,110.714286 L141,13.2857143 C141,5.948125 135.081855,0 127.78125,0 Z M61.6875,106.285714 L17.625,106.285714 L17.625,79.7142857 L61.6875,79.7142857 L61.6875,106.285714 Z M61.6875,62 L17.625,62 L17.625,35.4285714 L61.6875,35.4285714 L61.6875,62 Z M123.375,106.285714 L79.3125,106.285714 L79.3125,79.7142857 L123.375,79.7142857 L123.375,106.285714 Z M123.375,62 L79.3125,62 L79.3125,35.4285714 L123.375,35.4285714 L123.375,62 Z" id="Shape" fill="#000000" fill-rule="nonzero"></path>
                </g>
            </g>
        </g>
    </g>
</svg>