<?xml version="1.0" encoding="UTF-8"?>
<svg width="24px" height="24px" viewBox="0 0 24 24" version="1.1" xmlns="http://www.w3.org/2000/svg" xmlns:xlink="http://www.w3.org/1999/xlink">
    <title>link-solid</title>
    <defs>
        <filter color-interpolation-filters="auto" id="filter-1">
            <feColorMatrix in="SourceGraphic" type="matrix" values="0 0 0 0 0.266667 0 0 0 0 0.482353 0 0 0 0 0.984314 0 0 0 1.000000 0"></feColorMatrix>
        </filter>
    </defs>
    <g id="Page-1" stroke="none" stroke-width="1" fill="none" fill-rule="evenodd">
        <g id="link-solid" transform="translate(-643.000000, -366.000000)" filter="url(#filter-1)">
            <g transform="translate(643.000000, 366.000000)">
                <path d="M15.3099647,8.69020959 C18.110606,11.493751 18.0721685,15.9885391 15.3268397,18.7490962 C15.3216834,18.7547212 15.3155897,18.7608149 15.3099647,18.7664399 L12.1599639,21.9164338 C9.38168198,24.6947096 4.8615715,24.6943346 2.08371145,21.9164338 C-0.694570482,19.1386267 -0.694570482,14.6180105 2.08371145,11.8402034 L3.82305562,10.1008631 C4.28430573,9.63961399 5.07864968,9.94617589 5.10246218,10.5980184 C5.13283719,11.4287355 5.28180598,12.2633432 5.55668104,13.0693104 C5.64977482,13.3422161 5.58325918,13.6440905 5.37935288,13.8479964 L4.7658996,14.4614483 C3.45218053,15.7751645 3.4109774,17.9142541 4.71175896,19.240814 C6.02538428,20.580452 8.18454106,20.5884207 9.50824451,19.2647202 L12.6582453,16.1151951 C13.9796987,14.7937445 13.9741675,12.6578425 12.6582453,11.3419232 C12.4847609,11.1687672 12.3100108,11.0342363 12.1735108,10.9402521 C11.9777044,10.8057922 11.8569656,10.5867005 11.8478701,10.349347 C11.8293076,9.85401982 12.0048076,9.34359894 12.396214,8.95219345 L13.3831205,7.96524226 C13.6419174,7.70644589 14.0479019,7.6746647 14.3479957,7.88410179 C14.6916686,8.12407766 15.0135655,8.39381988 15.3099647,8.69020959 Z M21.9162944,2.08356624 C19.1384344,-0.694334579 14.6183239,-0.694709578 11.840042,2.08356624 L8.69004118,5.23356009 C8.68441618,5.23918508 8.67832243,5.24527882 8.67316618,5.25090381 C5.92788426,8.01146092 5.88939988,12.506249 8.69004118,15.3097904 C8.98642285,15.6061667 9.30830445,15.8758935 9.65196329,16.1158513 C9.95205712,16.3252884 10.3580885,16.2934604 10.6168385,16.0347109 L11.603745,15.0477597 C11.9951514,14.6563542 12.1706514,14.1459333 12.1520889,13.6506062 C12.1429934,13.4132526 12.0222545,13.1941609 11.8264482,13.0597011 C11.6899482,12.9657169 11.5151981,12.8311859 11.3417137,12.65803 C10.0257915,11.3421107 10.0202603,9.20620858 11.3417137,7.88475804 L14.4917145,4.73523294 C15.8154179,3.4115324 17.9745278,3.41950114 19.2882,4.75913914 C20.5889816,6.08569905 20.5478253,8.22478862 19.2340594,9.53850481 L18.6206061,10.1519567 C18.4166998,10.3558626 18.3501842,10.657737 18.4432779,10.9306427 C18.718153,11.7366099 18.8671218,12.5712176 18.8974968,13.4019348 C18.9213562,14.0537772 19.7156533,14.3603391 20.1769034,13.89909 L21.9162475,12.1597497 C24.6945763,9.38198949 24.6945763,4.86137332 21.9162944,2.08356624 L21.9162944,2.08356624 Z" id="Shape" fill="#000000" fill-rule="nonzero"></path>
            </g>
        </g>
    </g>
</svg>