<?xml version="1.0" encoding="UTF-8"?>
<svg width="132px" height="93px" viewBox="0 0 132 93" version="1.1" xmlns="http://www.w3.org/2000/svg" xmlns:xlink="http://www.w3.org/1999/xlink">
    <title>users-cog-solid</title>
    <defs>
        <filter color-interpolation-filters="auto" id="filter-1">
            <feColorMatrix in="SourceGraphic" type="matrix" values="0 0 0 0 0.290196 0 0 0 0 0.764706 0 0 0 0 0.403922 0 0 0 1.000000 0"></feColorMatrix>
        </filter>
    </defs>
    <g id="Page-1" stroke="none" stroke-width="1" fill="none" fill-rule="evenodd">
        <g id="Desktop-HD" transform="translate(-1909.000000, -602.000000)">
            <g id="users-cog-solid" transform="translate(1741.000000, 533.000000)" filter="url(#filter-1)">
                <g transform="translate(168.000000, 69.000000)">
                    <path d="M125.928901,64.2009377 C126.465207,61.2732753 126.465207,58.2833222 125.928901,55.3556597 L131.250712,52.2618888 C131.869527,51.9089082 132.13768,51.1821835 131.931409,50.4969859 C130.549388,46.0120563 128.177263,41.9423979 125.083187,38.5787006 C124.608762,38.0596115 123.845556,37.9350301 123.226741,38.2880107 L117.90493,41.3817816 C115.656568,39.4507703 113.078171,37.9557937 110.293502,36.9591427 L110.293502,30.7716008 C110.293502,30.0656397 109.79845,29.4427328 109.117754,29.2973878 C104.517894,28.2592096 99.835525,28.3007368 95.4625639,29.2973878 C94.7818672,29.4427328 94.286815,30.0656397 94.286815,30.7716008 L94.286815,36.9591427 C91.5021464,37.9557937 88.9237496,39.4507703 86.6753876,41.3817816 L81.3535765,38.2880107 C80.7553885,37.9350301 79.9715558,38.0596115 79.4971308,38.5787006 C76.4030546,41.9423979 74.0309296,46.0120563 72.6489089,50.4969859 C72.4426371,51.1821835 72.7314176,51.9089082 73.3296056,52.2618888 L78.6514167,55.3556597 C78.1151101,58.2833222 78.1151101,61.2732753 78.6514167,64.2009377 L73.3296056,67.2947086 C72.7107904,67.6476892 72.4426371,68.3744139 72.6489089,69.0596115 C74.0309296,73.5445412 76.4030546,77.593436 79.4971308,80.9778969 C79.9715558,81.4969859 80.7347613,81.6215673 81.3535765,81.2685867 L86.6753876,78.1748158 C88.9237496,80.1058272 91.5021464,81.6008038 94.286815,82.5974548 L94.286815,88.7849967 C94.286815,89.4909578 94.7818672,90.1138647 95.4625639,90.2592096 C100.062424,91.2973878 104.744793,91.2558607 109.117754,90.2592096 C109.79845,90.1138647 110.293502,89.4909578 110.293502,88.7849967 L110.293502,82.5974548 C113.078171,81.6008038 115.656568,80.1058272 117.90493,78.1748158 L123.226741,81.2685867 C123.824929,81.6215673 124.608762,81.4969859 125.083187,80.9778969 C128.177263,77.6141996 130.549388,73.5445412 131.931409,69.0596115 C132.13768,68.3744139 131.8489,67.6476892 131.250712,67.2947086 L125.928901,64.2009377 Z M102.310786,69.8486269 C96.7827031,69.8486269 92.3066062,65.3221701 92.3066062,59.7782987 C92.3066062,54.2344273 96.8033303,49.7079705 102.310786,49.7079705 C107.818242,49.7079705 112.314966,54.2344273 112.314966,59.7782987 C112.314966,65.3221701 107.838869,69.8486269 102.310786,69.8486269 Z M19.8020876,39.845278 C27.0834802,39.845278 33.0034793,33.8861353 33.0034793,26.5565975 C33.0034793,19.2270596 27.0834802,13.2679169 19.8020876,13.2679169 C12.520695,13.2679169 6.60069587,19.2270596 6.60069587,26.5565975 C6.60069587,33.8861353 12.520695,39.845278 19.8020876,39.845278 Z M66.0069587,46.4896182 C66.398875,46.4896182 66.7701641,46.3858004 67.1620804,46.3650368 C68.8741359,41.8593436 71.3906512,37.6235767 74.6497448,34.0730074 C76.1761557,32.4119223 78.342009,31.4567984 80.6109983,31.4567984 C82.0342733,31.4567984 83.4369212,31.8305425 84.6539245,32.5572672 L86.2834713,33.5123912 C86.4484887,33.4085733 86.6135061,33.3255191 86.7785235,33.2217013 C88.2224257,30.190221 89.088767,26.8265238 89.088767,23.2551909 C89.088767,10.4025452 78.7545525,0 65.9863315,0 C53.2181104,0 42.9045231,10.3817816 42.9045231,23.2344273 C42.9045231,36.087073 53.2387376,46.4896182 66.0069587,46.4896182 Z M87.7067463,86.8747488 C87.2323213,86.6255861 86.7578963,86.3348962 86.3040984,86.0649699 C84.6126701,87.0616209 83.1481407,88.0997991 80.6316254,88.0997991 C78.3832634,88.0997991 76.2174101,87.1446752 74.670372,85.4835901 C70.895599,81.3724046 68.0077946,76.3683858 66.3782478,71.03215 C64.1711401,63.8687207 71.5144143,60.7126591 71.7000588,60.5880777 C71.6794317,60.0482251 71.6794317,59.5083724 71.7000588,58.9685198 L70.070512,58.0133958 C69.2866794,57.5565975 68.6266098,56.9752177 68.0490489,56.3315472 C67.3683522,56.3730743 66.7082826,56.4561286 66.0275858,56.4561286 C60.9533009,56.4561286 56.2090507,55.2103148 51.8979712,53.1339585 L50.1859157,53.1339585 C37.0464055,53.1339585 26.4027835,63.8479571 26.4027835,77.0535834 L26.4027835,83.0334896 C26.4027835,88.5358339 30.837626,93 36.3038273,93 L88.9856311,93 C88.2224257,91.7541862 87.7067463,90.3422639 87.7067463,88.7849967 L87.7067463,86.8747488 Z M35.7056392,50.351641 C33.3128869,47.9638312 30.0331662,46.4896182 26.4027835,46.4896182 L13.2013917,46.4896182 C5.9199991,46.4896182 0,52.4487609 0,59.7782987 L0,66.422639 C0,70.0977897 2.94968596,73.0669792 6.60069587,73.0669792 L20.1940039,73.0669792 C21.4935159,63.2250502 27.3928878,54.9403885 35.7056392,50.351641 Z" id="Shape" fill="#000000" fill-rule="nonzero"></path>
                </g>
            </g>
        </g>
    </g>
</svg>