<?xml version="1.0" encoding="UTF-8"?>
<svg width="141px" height="132px" viewBox="0 0 141 132" version="1.1" xmlns="http://www.w3.org/2000/svg" xmlns:xlink="http://www.w3.org/1999/xlink">
    <title>chart-pie-solid</title>
    <defs>
        <filter color-interpolation-filters="auto" id="filter-1">
            <feColorMatrix in="SourceGraphic" type="matrix" values="0 0 0 0 0.000000 0 0 0 0 0.737255 0 0 0 0 0.831373 0 0 0 1.000000 0"></feColorMatrix>
        </filter>
    </defs>
    <g id="Page-1" stroke="none" stroke-width="1" fill="none" fill-rule="evenodd">
        <g id="Desktop-HD" transform="translate(-243.000000, -584.000000)">
            <g id="chart-pie-solid" transform="translate(80.000000, 533.000000)" filter="url(#filter-1)">
                <g transform="translate(163.000000, 51.000000)">
                    <path d="M136.798634,74.2498195 L75.2953589,74.2498195 L116.255208,114.992373 C117.820717,116.549578 120.397069,116.675907 122.006641,115.167688 C132.037307,105.767741 138.936954,93.0961188 140.96123,78.8518228 C141.308545,76.41289 139.273901,74.2498195 136.798634,74.2498195 L136.798634,74.2498195 Z M132.695651,57.5433874 C130.559922,26.7447704 105.817613,2.13372079 74.8547353,0.00932262927 C72.4909195,-0.153101017 70.5003377,1.82949872 70.5003377,4.18593066 L70.5003377,61.8746846 L128.499359,61.8746846 C130.868359,61.8746846 132.85894,59.894663 132.695651,57.5433874 Z M58.0592016,74.2498195 L58.0592016,13.0728244 C58.0592016,10.6106882 55.8845947,8.58683802 53.435246,8.93231054 C22.5475338,13.2739204 -1.06211389,40.1150724 0.0368531279,72.2826887 C1.16692299,105.319143 29.7633927,132.410376 62.9915937,131.995293 C76.0547866,131.832869 88.1252805,127.645949 98.0496785,120.643685 C100.097282,119.199919 100.232061,116.201527 98.4566073,114.435492 L58.0592016,74.2498195 Z" id="Shape" fill="#000000" fill-rule="nonzero"></path>
                </g>
            </g>
        </g>
    </g>
</svg>