<?xml version="1.0" encoding="UTF-8"?>
<svg width="504px" height="386px" viewBox="0 0 504 386" version="1.1" xmlns="http://www.w3.org/2000/svg" xmlns:xlink="http://www.w3.org/1999/xlink">
    <title>sign-out-alt-solid</title>
    <defs>
        <filter color-interpolation-filters="auto" id="filter-1">
            <feColorMatrix in="SourceGraphic" type="matrix" values="0 0 0 0 1.000000 0 0 0 0 1.000000 0 0 0 0 1.000000 0 0 0 1.000000 0"></feColorMatrix>
        </filter>
    </defs>
    <g id="Page-1" stroke="none" stroke-width="1" fill="none" fill-rule="evenodd">
        <g filter="url(#filter-1)" id="sign-out-alt-solid">
            <g transform="translate(0.000000, 0.978731)">
                <path d="M497,209.021269 L329,377.021269 C314,392.021269 288,381.521269 288,360.021269 L288,264.021269 L152,264.021269 C138.7,264.021269 128,253.321269 128,240.021269 L128,144.021269 C128,130.721269 138.7,120.021269 152,120.021269 L288,120.021269 L288,24.0212687 C288,2.62126866 313.9,-7.97873134 329,7.02126866 L497,175.021269 C506.3,184.421269 506.3,199.621269 497,209.021269 Z M192,372.021269 L192,332.021269 C192,325.421269 186.6,320.021269 180,320.021269 L96,320.021269 C78.3,320.021269 64,305.721269 64,288.021269 L64,96.0212687 C64,78.3212687 78.3,64.0212687 96,64.0212687 L180,64.0212687 C186.6,64.0212687 192,58.6212687 192,52.0212687 L192,12.0212687 C192,5.42126866 186.6,0.0212686593 180,0.0212686593 L96,0.0212686593 C43,0.0212686593 0,43.0212687 0,96.0212687 L0,288.021269 C0,341.021269 43,384.021269 96,384.021269 L180,384.021269 C186.6,384.021269 192,378.621269 192,372.021269 Z" id="Shape" fill="#000000" fill-rule="nonzero"></path>
            </g>
        </g>
    </g>
</svg>